<svg width="140" height="120" viewBox="0 0 140 120" fill="none" xmlns="http://www.w3.org/2000/svg">
<path d="M65.205 97.845C65.7401 98.5112 66.4562 99.0559 67.2915 99.4322C68.1268 99.8086 69.0563 100.005 70 100.005C70.9436 100.005 71.8732 99.8086 72.7085 99.4322C73.5438 99.0559 74.2598 98.5112 74.795 97.845L127.295 32.845C127.903 32.0952 128.259 31.2171 128.325 30.306C128.392 29.3948 128.165 28.4856 127.671 27.6769C127.177 26.8683 126.434 26.1912 125.522 25.7192C124.61 25.2473 123.565 24.9985 122.5 24.9999H17.5C16.4374 25.0037 15.3961 25.2557 14.4881 25.7288C13.5801 26.2018 12.8398 26.8781 12.3467 27.6849C11.8535 28.4917 11.6263 29.3984 11.6895 30.3076C11.7526 31.2168 12.1037 32.094 12.705 32.845L65.205 97.845Z" fill="#E95F56"/>
</svg>
