<svg width="50" height="47" viewBox="0 0 50 47" fill="none" xmlns="http://www.w3.org/2000/svg">
<path d="M25 0.946289C11.2 0.946289 0 11.1577 0 23.7397C0 36.3216 11.2 46.5331 25 46.5331C38.8 46.5331 50 36.3216 50 23.7397C50 11.1577 38.8 0.946289 25 0.946289ZM36.6 16.4458C36.225 20.0472 34.6 28.7998 33.775 32.8342C33.425 34.5438 32.725 35.1136 32.075 35.182C30.625 35.2959 29.525 34.3158 28.125 33.4725C25.925 32.1504 24.675 31.3299 22.55 30.0535C20.075 28.5719 21.675 27.7513 23.1 26.4293C23.475 26.0874 29.875 20.7765 30 20.2979C30.0174 20.2254 30.0151 20.1501 29.9933 20.0786C29.9715 20.0071 29.9309 19.9415 29.875 19.8876C29.725 19.7736 29.525 19.8192 29.35 19.842C29.125 19.8876 25.625 22.0074 18.8 26.2014C17.8 26.8168 16.9 27.1359 16.1 27.1131C15.2 27.0903 13.5 26.6572 12.225 26.2697C10.65 25.8139 9.425 25.5632 9.525 24.7654C9.575 24.3551 10.2 23.9448 11.375 23.5117C18.675 20.617 23.525 18.7023 25.95 17.7906C32.9 15.1466 34.325 14.6907 35.275 14.6907C35.475 14.6907 35.95 14.7363 36.25 14.9642C36.5 15.1466 36.575 15.3973 36.6 15.5796C36.575 15.7164 36.625 16.1267 36.6 16.4458Z" fill="#C4AEAB"/>
</svg>
