<svg width="51" height="47" viewBox="0 0 51 47" fill="none" xmlns="http://www.w3.org/2000/svg">
<path d="M14.5751 0.946533H35.5751C43.5751 0.946533 50.0751 6.87282 50.0751 14.1667V33.3132C50.0751 36.8194 48.5474 40.182 45.8281 42.6612C43.1088 45.1405 39.4207 46.5333 35.5751 46.5333H14.5751C6.57507 46.5333 0.0750732 40.607 0.0750732 33.3132V14.1667C0.0750732 10.6605 1.60275 7.29789 4.32203 4.81863C7.0413 2.33937 10.7294 0.946533 14.5751 0.946533ZM14.0751 5.50521C11.6881 5.50521 9.39894 6.36973 7.71111 7.90858C6.02328 9.44744 5.07507 11.5346 5.07507 13.7108V33.769C5.07507 38.3049 9.10007 41.9746 14.0751 41.9746H36.0751C38.462 41.9746 40.7512 41.1101 42.439 39.5713C44.1269 38.0324 45.0751 35.9453 45.0751 33.769V13.7108C45.0751 9.17495 41.0501 5.50521 36.0751 5.50521H14.0751ZM38.2001 8.92422C39.0289 8.92422 39.8237 9.2244 40.4098 9.75872C40.9958 10.293 41.3251 11.0177 41.3251 11.7734C41.3251 12.529 40.9958 13.2537 40.4098 13.7881C39.8237 14.3224 39.0289 14.6226 38.2001 14.6226C37.3713 14.6226 36.5764 14.3224 35.9904 13.7881C35.4043 13.2537 35.0751 12.529 35.0751 11.7734C35.0751 11.0177 35.4043 10.293 35.9904 9.75872C36.5764 9.2244 37.3713 8.92422 38.2001 8.92422ZM25.0751 12.3432C28.3903 12.3432 31.5697 13.544 33.9139 15.6812C36.2581 17.8185 37.5751 20.7173 37.5751 23.7399C37.5751 26.7625 36.2581 29.6613 33.9139 31.7986C31.5697 33.9359 28.3903 35.1366 25.0751 35.1366C21.7599 35.1366 18.5804 33.9359 16.2362 31.7986C13.892 29.6613 12.5751 26.7625 12.5751 23.7399C12.5751 20.7173 13.892 17.8185 16.2362 15.6812C18.5804 13.544 21.7599 12.3432 25.0751 12.3432ZM25.0751 16.9019C23.0859 16.9019 21.1783 17.6223 19.7718 18.9047C18.3652 20.1871 17.5751 21.9264 17.5751 23.7399C17.5751 25.5535 18.3652 27.2928 19.7718 28.5751C21.1783 29.8575 23.0859 30.5779 25.0751 30.5779C27.0642 30.5779 28.9719 29.8575 30.3784 28.5751C31.7849 27.2928 32.5751 25.5535 32.5751 23.7399C32.5751 21.9264 31.7849 20.1871 30.3784 18.9047C28.9719 17.6223 27.0642 16.9019 25.0751 16.9019Z" fill="#C4AEAB"/>
</svg>
