<svg width="24" height="32" viewBox="0 0 24 32" fill="none" xmlns="http://www.w3.org/2000/svg">
<path d="M11.6748 14.9837C10.5689 14.9837 9.50839 14.5683 8.72645 13.8288C7.9445 13.0894 7.50521 12.0864 7.50521 11.0407C7.50521 9.99488 7.9445 8.99194 8.72645 8.25247C9.50839 7.51299 10.5689 7.09756 11.6748 7.09756C12.7806 7.09756 13.8412 7.51299 14.6231 8.25247C15.405 8.99194 15.8443 9.99488 15.8443 11.0407C15.8443 11.5585 15.7365 12.0712 15.5269 12.5496C15.3174 13.028 15.0103 13.4627 14.6231 13.8288C14.2359 14.195 13.7763 14.4854 13.2704 14.6836C12.7645 14.8818 12.2223 14.9837 11.6748 14.9837ZM11.6748 0C8.57843 0 5.60891 1.16321 3.41946 3.23373C1.23002 5.30426 0 8.11249 0 11.0407C0 19.3211 11.6748 31.5447 11.6748 31.5447C11.6748 31.5447 23.3495 19.3211 23.3495 11.0407C23.3495 8.11249 22.1195 5.30426 19.9301 3.23373C17.7406 1.16321 14.7711 0 11.6748 0Z" fill="#E95F56"/>
</svg>
